<svg width="20" height="20" viewBox="0 0 20 20" fill="" xmlns="http://www.w3.org/2000/svg">
<path fill-rule="evenodd" clip-rule="evenodd" d="M10 0.25C4.615 0.25 0.25 4.615 0.25 10C0.25 15.385 4.615 19.75 10 19.75C15.385 19.75 19.75 15.385 19.75 10C19.75 4.615 15.385 0.25 10 0.25ZM6.547 2.505C5.23052 3.11184 4.09718 4.05483 3.2611 5.23903C2.42502 6.42323 1.91573 7.80683 1.7845 9.25048C1.65327 10.6941 1.90474 12.1469 2.5136 13.4624C3.12245 14.778 4.06718 15.9099 5.25266 16.7441C6.43814 17.5784 7.82251 18.0856 9.26636 18.2146C10.7102 18.3436 12.1626 18.0899 13.4772 17.479C14.7918 16.8682 15.9222 15.9217 16.7547 14.735C17.5871 13.5482 18.0922 12.163 18.219 10.719L17.759 10.259C17.5877 10.0876 17.4452 9.88976 17.337 9.673L16.257 7.513C16.2276 7.45438 16.1847 7.40358 16.1318 7.36478C16.079 7.32598 16.0176 7.3003 15.9529 7.28986C15.8881 7.27941 15.8218 7.28449 15.7594 7.30468C15.697 7.32487 15.6403 7.3596 15.594 7.406C15.4897 7.51022 15.3594 7.58465 15.2166 7.62157C15.0738 7.6585 14.9238 7.65657 14.782 7.616L13.509 7.253C13.3053 7.19574 13.0879 7.21291 12.8958 7.30143C12.7036 7.38996 12.5492 7.54404 12.4604 7.73605C12.3716 7.92807 12.354 8.14545 12.4109 8.34922C12.4679 8.55299 12.5955 8.72982 12.771 8.848L13.358 9.238C13.948 9.633 14.032 10.468 13.53 10.97L13.33 11.17C13.119 11.382 13 11.668 13 11.966V12.376C13 12.785 12.89 13.185 12.68 13.534L11.365 15.725C11.1775 16.0377 10.9123 16.2964 10.5951 16.476C10.2779 16.6557 9.91954 16.7501 9.555 16.75C9.2752 16.75 9.00685 16.6388 8.809 16.441C8.61115 16.2431 8.5 15.9748 8.5 15.695V14.523C8.5 13.603 7.94 12.776 7.086 12.434L6.432 12.173C5.95525 11.9824 5.55803 11.6345 5.30628 11.187C5.05453 10.7395 4.96339 10.2194 5.048 9.713L5.055 9.671C5.10148 9.39281 5.19986 9.12584 5.345 8.884L5.435 8.734C5.67382 8.33631 6.02972 8.02216 6.45398 7.83455C6.87824 7.64695 7.35011 7.59506 7.805 7.686L8.983 7.922C9.26021 7.97729 9.54808 7.9262 9.78933 7.77889C10.0306 7.63158 10.2075 7.39885 10.285 7.127L10.493 6.397C10.5651 6.14481 10.5467 5.87536 10.4412 5.63524C10.3356 5.39513 10.1495 5.19944 9.915 5.082L9.25 4.75L9.159 4.841C8.95007 5.04993 8.70203 5.21566 8.42904 5.32874C8.15606 5.44181 7.86348 5.5 7.568 5.5H7.388C7.13981 5.50036 6.90184 5.59886 6.726 5.774C6.56562 5.93584 6.35145 6.03324 6.12407 6.04776C5.89669 6.06229 5.67187 5.99293 5.4922 5.85281C5.31253 5.7127 5.19048 5.51156 5.14916 5.28749C5.10784 5.06343 5.15012 4.83198 5.268 4.637L6.547 2.505Z" fill="currentColor"/>
</svg>
