<svg version="1.1" xmlns="http://www.w3.org/2000/svg" x="0" y="0" viewBox="0 0 200 200" style="enable-background:new 0 0 200 200" xml:space="preserve" fill="currentColor"><path class="st0" d="M125.42 78.6c12.61 0 22.86 10.26 22.86 22.86s-10.26 22.86-22.86 22.86-22.86-10.26-22.86-22.86 10.26-22.86 22.86-22.86m0-22.86c-25.25 0-45.72 20.47-45.72 45.72s20.47 45.72 45.72 45.72 45.72-20.47 45.72-45.72c.01-25.25-20.46-45.72-45.72-45.72zM54.8 86.94l-21.54 48.38 24.26 10.8 10.74-24.13c5.96-13.39-.07-29.09-13.46-35.05zM41.34 51.88c-5.96 13.4.06 29.09 13.46 35.06l10.8-24.26-24.26-10.8z"/></svg>
